<svg width="26" height="25" viewBox="0 0 26 25" fill="none" xmlns="http://www.w3.org/2000/svg">
<path fill-rule="evenodd" clip-rule="evenodd" d="M4.6573 23.7428C4.53088 24.4635 5.24192 25.0275 5.86989 24.7048L13.0024 21.0389L20.1349 24.7048C20.7628 25.0275 21.4739 24.4635 21.3475 23.7428L19.9992 16.0574L25.7229 10.6029C26.2579 10.0931 25.981 9.16107 25.2644 9.05927L17.3043 7.92848L13.7551 0.897847C13.4354 0.26452 12.5693 0.26452 12.2496 0.897847L8.70043 7.92848L0.74041 9.05927C0.0238023 9.16107 -0.253098 10.0931 0.281821 10.6029L6.00561 16.0574L4.6573 23.7428ZM12.6273 19.2446L6.63794 22.323L7.7661 15.8924C7.81928 15.5892 7.71929 15.2788 7.50164 15.0714L2.77802 10.57L9.36302 9.63454C9.63524 9.59587 9.87292 9.42202 10.0013 9.16764L13.0024 3.22285L16.0034 9.16764C16.1318 9.42202 16.3695 9.59587 16.6417 9.63454L23.2267 10.57L18.5031 15.0714C18.2855 15.2788 18.1855 15.5892 18.2387 15.8924L19.3668 22.323L13.3775 19.2446C13.1409 19.123 12.8639 19.123 12.6273 19.2446Z" fill="#9D875C"/>
</svg>
